<svg width="900" height="580" viewBox="0 0 900 580" xmlns="http://www.w3.org/2000/svg" role="img" aria-labelledby="core-title core-desc">
  <title id="core-title">HALUZ Skills Core</title>
  <desc id="core-desc">Cyberpunk FUI dashboard showing technical skills, radar chart, language distribution, and commit history</desc>
  
  <defs>
    <style>
      /* === FONTS (Web-Safe) === */
      .f-title { font-family: Arial, 'Helvetica Neue', sans-serif; font-weight: 900; letter-spacing: 1px; }
      .f-mono { font-family: 'Courier New', Courier, monospace; font-weight: bold; }
      .f-data { font-family: 'Courier New', Courier, monospace; font-size: 9px; }
      
      /* === COLORS === */
      .c-cyan { fill: #00f3ff; } .c-red { fill: #ff003c; } .c-green { fill: #0aff0a; }
      .c-white { fill: #fff; } .c-dim { fill: #778899; } .c-orange { fill: #ff9500; }
      .c-yellow { fill: #ffff00; } .c-purple { fill: #bf00ff; }
      
      /* === ANIMATIONS === */
      @keyframes fadeIn { 0% { opacity: 0; } 100% { opacity: 1; } }
      @keyframes loadBar { 0% { width: 0; } }
      @keyframes pulse { 0%, 100% { opacity: 1; } 50% { opacity: 0.5; } }
      @keyframes blink { 0%, 100% { opacity: 1; } 50% { opacity: 0.2; } }
      @keyframes radarPulse { 0% { opacity: 0.3; } 50% { opacity: 1; } 100% { opacity: 0.3; } }
      @keyframes dataFlux { 0% { opacity: 1; } 25% { opacity: 0.7; } 50% { opacity: 1; } 75% { opacity: 0.8; } 100% { opacity: 1; } }
      
      .boot-1 { animation: fadeIn 0.4s ease-out 0.2s forwards; opacity: 0; }
      .boot-2 { animation: fadeIn 0.4s ease-out 0.4s forwards; opacity: 0; }
      .boot-3 { animation: fadeIn 0.4s ease-out 0.6s forwards; opacity: 0; }
      .boot-4 { animation: fadeIn 0.4s ease-out 0.8s forwards; opacity: 0; }
      .boot-5 { animation: fadeIn 0.4s ease-out 1s forwards; opacity: 0; }
      
      .anim-pulse { animation: pulse 2s infinite; }
      .anim-blink { animation: blink 1s infinite; }
      .anim-radar { animation: radarPulse 3s ease-in-out infinite; }
      .anim-flux { animation: dataFlux 4s ease-in-out infinite; }
      .load-anim { animation: loadBar 1.2s ease-out forwards; }
    </style>
    
    <pattern id="core-grid" width="20" height="20" patternUnits="userSpaceOnUse">
      <path d="M 20 0 L 0 0 0 20" fill="none" stroke="#0a0a0a" stroke-width="0.5"/>
    </pattern>
    <linearGradient id="core-cyanBar" x1="0" y1="0" x2="1" y2="0">
      <stop offset="0%" stop-color="#00f3ff" stop-opacity="0.2"/>
      <stop offset="100%" stop-color="#00f3ff"/>
    </linearGradient>
    <linearGradient id="core-greenBar" x1="0" y1="0" x2="1" y2="0">
      <stop offset="0%" stop-color="#0aff0a" stop-opacity="0.2"/>
      <stop offset="100%" stop-color="#0aff0a"/>
    </linearGradient>
    <linearGradient id="core-orangeBar" x1="0" y1="0" x2="1" y2="0">
      <stop offset="0%" stop-color="#ff9500" stop-opacity="0.2"/>
      <stop offset="100%" stop-color="#ff9500"/>
    </linearGradient>
    <linearGradient id="core-redBar" x1="0" y1="0" x2="1" y2="0">
      <stop offset="0%" stop-color="#ff003c" stop-opacity="0.2"/>
      <stop offset="100%" stop-color="#ff003c"/>
    </linearGradient>
    <linearGradient id="core-radarFill" x1="0" y1="0" x2="0" y2="1">
      <stop offset="0%" stop-color="#00f3ff" stop-opacity="0.4"/>
      <stop offset="100%" stop-color="#00f3ff" stop-opacity="0.1"/>
    </linearGradient>
  </defs>

  <!-- BACKGROUND -->
  <rect width="100%" height="100%" fill="#050505"/>
  <rect width="100%" height="100%" fill="url(#core-grid)"/>
  
  <!-- TOP BORDER DECORATION -->
  <rect x="0" y="0" width="900" height="3" fill="#00f3ff" opacity="0.5"/>
  <rect x="0" y="577" width="900" height="3" fill="#ff003c" opacity="0.5"/>
  
  <!-- === PANEL 1: FRONTEND_OPS === -->
  <g transform="translate(15, 15)" class="boot-1">
    <path d="M 0 0 L 270 0 L 285 15 L 285 290 L 15 290 L 0 275 Z" fill="#0a0a0d" stroke="#00f3ff" stroke-width="1"/>
    <rect x="5" y="5" width="60" height="3" fill="#00f3ff"/>
    <text x="15" y="25" class="f-title c-cyan" font-size="12">&gt;&gt; FRONTEND_OPS</text>
    <circle cx="265" cy="20" r="5" fill="#0aff0a" class="anim-pulse"/>
    <text x="240" y="24" class="f-data c-green">ACTIVE</text>
    
    <!-- TypeScript -->
    <g transform="translate(20, 45)">
      <text x="0" y="0" class="f-mono c-white" font-size="11">TypeScript</text>
      <text x="200" y="0" class="f-data c-cyan">95%</text>
      <rect x="0" y="8" width="245" height="10" fill="#111" stroke="#222"/>
      <rect x="1" y="9" width="232" height="8" fill="url(#core-cyanBar)" class="load-anim"/>
    </g>
    
    <!-- React/Next.js -->
    <g transform="translate(20, 80)">
      <text x="0" y="0" class="f-mono c-white" font-size="11">React / Next.js</text>
      <text x="200" y="0" class="f-data c-cyan">90%</text>
      <rect x="0" y="8" width="245" height="10" fill="#111" stroke="#222"/>
      <rect x="1" y="9" width="220" height="8" fill="url(#core-cyanBar)" class="load-anim"/>
    </g>
    
    <!-- JavaScript -->
    <g transform="translate(20, 115)">
      <text x="0" y="0" class="f-mono c-white" font-size="11">JavaScript ES6+</text>
      <text x="200" y="0" class="f-data c-cyan">88%</text>
      <rect x="0" y="8" width="245" height="10" fill="#111" stroke="#222"/>
      <rect x="1" y="9" width="215" height="8" fill="url(#core-cyanBar)" class="load-anim"/>
    </g>
    
    <!-- HTML/CSS -->
    <g transform="translate(20, 150)">
      <text x="0" y="0" class="f-mono c-white" font-size="11">HTML5 / CSS3</text>
      <text x="200" y="0" class="f-data c-cyan">92%</text>
      <rect x="0" y="8" width="245" height="10" fill="#111" stroke="#222"/>
      <rect x="1" y="9" width="225" height="8" fill="url(#core-cyanBar)" class="load-anim"/>
    </g>
    
    <!-- Tailwind -->
    <g transform="translate(20, 185)">
      <text x="0" y="0" class="f-mono c-white" font-size="11">TailwindCSS</text>
      <text x="200" y="0" class="f-data c-cyan">85%</text>
      <rect x="0" y="8" width="245" height="10" fill="#111" stroke="#222"/>
      <rect x="1" y="9" width="208" height="8" fill="url(#core-cyanBar)" class="load-anim"/>
    </g>
    
    <!-- React Native -->
    <g transform="translate(20, 220)">
      <text x="0" y="0" class="f-mono c-white" font-size="11">React Native</text>
      <text x="200" y="0" class="f-data c-cyan">78%</text>
      <rect x="0" y="8" width="245" height="10" fill="#111" stroke="#222"/>
      <rect x="1" y="9" width="190" height="8" fill="url(#core-cyanBar)" class="load-anim"/>
    </g>
    
    <!-- Three.js -->
    <g transform="translate(20, 255)">
      <text x="0" y="0" class="f-mono c-white" font-size="11">Three.js / WebGL</text>
      <text x="200" y="0" class="f-data c-cyan">70%</text>
      <rect x="0" y="8" width="245" height="10" fill="#111" stroke="#222"/>
      <rect x="1" y="9" width="171" height="8" fill="url(#core-cyanBar)" class="load-anim"/>
    </g>
    
    <text x="15" y="280" class="f-data c-dim">MODULES: 7 | STATUS: OPERATIONAL</text>
  </g>
  
  <!-- === PANEL 2: BACKEND_SYS === -->
  <g transform="translate(310, 15)" class="boot-2">
    <path d="M 0 15 L 15 0 L 270 0 L 285 15 L 285 275 L 270 290 L 15 290 L 0 275 Z" fill="#0a0a0d" stroke="#0aff0a" stroke-width="1"/>
    <rect x="5" y="5" width="60" height="3" fill="#0aff0a"/>
    <text x="15" y="25" class="f-title c-green" font-size="12">&gt;&gt; BACKEND_SYS</text>
    <circle cx="265" cy="20" r="5" fill="#ffff00"/>
    <text x="232" y="24" class="f-data c-yellow">STANDBY</text>
    
    <!-- Node.js -->
    <g transform="translate(20, 45)">
      <text x="0" y="0" class="f-mono c-white" font-size="11">Node.js</text>
      <text x="200" y="0" class="f-data c-green">85%</text>
      <rect x="0" y="8" width="245" height="10" fill="#111" stroke="#222"/>
      <rect x="1" y="9" width="208" height="8" fill="url(#core-greenBar)" class="load-anim"/>
    </g>
    
    <!-- Python -->
    <g transform="translate(20, 80)">
      <text x="0" y="0" class="f-mono c-white" font-size="11">Python</text>
      <text x="200" y="0" class="f-data c-green">75%</text>
      <rect x="0" y="8" width="245" height="10" fill="#111" stroke="#222"/>
      <rect x="1" y="9" width="183" height="8" fill="url(#core-greenBar)" class="load-anim"/>
    </g>
    
    <!-- Java -->
    <g transform="translate(20, 115)">
      <text x="0" y="0" class="f-mono c-white" font-size="11">Java</text>
      <text x="200" y="0" class="f-data c-orange">60%</text>
      <rect x="0" y="8" width="245" height="10" fill="#111" stroke="#222"/>
      <rect x="1" y="9" width="147" height="8" fill="url(#core-orangeBar)" class="load-anim"/>
    </g>
    
    <!-- Firebase -->
    <g transform="translate(20, 150)">
      <text x="0" y="0" class="f-mono c-white" font-size="11">Firebase</text>
      <text x="200" y="0" class="f-data c-green">70%</text>
      <rect x="0" y="8" width="245" height="10" fill="#111" stroke="#222"/>
      <rect x="1" y="9" width="171" height="8" fill="url(#core-greenBar)" class="load-anim"/>
    </g>
    
    <!-- MongoDB -->
    <g transform="translate(20, 185)">
      <text x="0" y="0" class="f-mono c-white" font-size="11">MongoDB</text>
      <text x="200" y="0" class="f-data c-orange">55%</text>
      <rect x="0" y="8" width="245" height="10" fill="#111" stroke="#222"/>
      <rect x="1" y="9" width="134" height="8" fill="url(#core-orangeBar)" class="load-anim"/>
    </g>
    
    <!-- C++ -->
    <g transform="translate(20, 220)">
      <text x="0" y="0" class="f-mono c-white" font-size="11">C++</text>
      <text x="200" y="0" class="f-data c-orange">50%</text>
      <rect x="0" y="8" width="245" height="10" fill="#111" stroke="#222"/>
      <rect x="1" y="9" width="122" height="8" fill="url(#core-orangeBar)" class="load-anim"/>
    </g>
    
    <!-- SQL -->
    <g transform="translate(20, 255)">
      <text x="0" y="0" class="f-mono c-white" font-size="11">PostgreSQL</text>
      <text x="200" y="0" class="f-data c-green">65%</text>
      <rect x="0" y="8" width="245" height="10" fill="#111" stroke="#222"/>
      <rect x="1" y="9" width="159" height="8" fill="url(#core-greenBar)" class="load-anim"/>
    </g>
    
    <text x="15" y="280" class="f-data c-dim">MODULES: 7 | HEAP: 42% USED</text>
  </g>
  
  <!-- === PANEL 3: INFRASTRUCTURE === -->
  <g transform="translate(605, 15)" class="boot-3">
    <path d="M 0 0 L 265 0 L 280 15 L 280 290 L 0 290 L 0 0 Z" fill="#0a0a0d" stroke="#ff9500" stroke-width="1"/>
    <rect x="5" y="5" width="60" height="3" fill="#ff9500"/>
    <text x="15" y="25" class="f-title c-orange" font-size="12">&gt;&gt; INFRASTRUCTURE</text>
    <circle cx="260" cy="20" r="5" fill="#00f3ff" class="anim-blink"/>
    <text x="210" y="24" class="f-data c-cyan">MONITOR</text>
    
    <!-- Linux -->
    <g transform="translate(20, 45)">
      <text x="0" y="0" class="f-mono c-white" font-size="11">Linux</text>
      <text x="175" y="0" class="f-data c-orange">90%</text>
      <rect x="0" y="8" width="220" height="10" fill="#111" stroke="#222"/>
      <rect x="1" y="9" width="198" height="8" fill="url(#core-orangeBar)" class="load-anim"/>
    </g>
    
    <!-- Docker -->
    <g transform="translate(20, 80)">
      <text x="0" y="0" class="f-mono c-white" font-size="11">Docker</text>
      <text x="175" y="0" class="f-data c-orange">65%</text>
      <rect x="0" y="8" width="220" height="10" fill="#111" stroke="#222"/>
      <rect x="1" y="9" width="143" height="8" fill="url(#core-orangeBar)" class="load-anim"/>
    </g>
    
    <!-- Git/GitHub -->
    <g transform="translate(20, 115)">
      <text x="0" y="0" class="f-mono c-white" font-size="11">Git / GitHub</text>
      <text x="175" y="0" class="f-data c-orange">95%</text>
      <rect x="0" y="8" width="220" height="10" fill="#111" stroke="#222"/>
      <rect x="1" y="9" width="209" height="8" fill="url(#core-orangeBar)" class="load-anim"/>
    </g>
    
    <!-- Azure/AWS -->
    <g transform="translate(20, 150)">
      <text x="0" y="0" class="f-mono c-white" font-size="11">Azure / AWS</text>
      <text x="175" y="0" class="f-data c-red">50%</text>
      <rect x="0" y="8" width="220" height="10" fill="#111" stroke="#222"/>
      <rect x="1" y="9" width="110" height="8" fill="url(#core-redBar)" class="load-anim"/>
    </g>
    
    <!-- Vercel/Netlify -->
    <g transform="translate(20, 185)">
      <text x="0" y="0" class="f-mono c-white" font-size="11">Vercel/Netlify</text>
      <text x="175" y="0" class="f-data c-orange">80%</text>
      <rect x="0" y="8" width="220" height="10" fill="#111" stroke="#222"/>
      <rect x="1" y="9" width="176" height="8" fill="url(#core-orangeBar)" class="load-anim"/>
    </g>
    
    <!-- CI/CD -->
    <g transform="translate(20, 220)">
      <text x="0" y="0" class="f-mono c-white" font-size="11">CI/CD Pipelines</text>
      <text x="175" y="0" class="f-data c-orange">70%</text>
      <rect x="0" y="8" width="220" height="10" fill="#111" stroke="#222"/>
      <rect x="1" y="9" width="154" height="8" fill="url(#core-orangeBar)" class="load-anim"/>
    </g>
    
    <!-- Kubernetes -->
    <g transform="translate(20, 255)">
      <text x="0" y="0" class="f-mono c-white" font-size="11">Kubernetes</text>
      <text x="175" y="0" class="f-data c-red">45%</text>
      <rect x="0" y="8" width="220" height="10" fill="#111" stroke="#222"/>
      <rect x="1" y="9" width="99" height="8" fill="url(#core-redBar)" class="load-anim"/>
    </g>
    
    <text x="15" y="280" class="f-data c-dim">UPTIME: 99.7% | DEPLOYS: 47</text>
  </g>
  
  <!-- === SPIDER CHART (RADAR) === -->
  <g transform="translate(15, 320)" class="boot-4">
    <rect width="280" height="245" fill="#0a0a0d" stroke="#00f3ff" stroke-width="0.5"/>
    <text x="140" y="18" text-anchor="middle" class="f-title c-cyan" font-size="11">&gt;&gt; SKILL_RADAR</text>
    
    <g transform="translate(140, 135)">
      <!-- Concentric hexagons -->
      <polygon points="0,-80 69,-40 69,40 0,80 -69,40 -69,-40" fill="none" stroke="#222" stroke-width="0.5"/>
      <polygon points="0,-60 52,-30 52,30 0,60 -52,30 -52,-30" fill="none" stroke="#222" stroke-width="0.5"/>
      <polygon points="0,-40 35,-20 35,20 0,40 -35,20 -35,-20" fill="none" stroke="#222" stroke-width="0.5"/>
      
      <!-- Axis lines -->
      <line x1="0" y1="0" x2="0" y2="-85" stroke="#333" stroke-width="0.5"/>
      <line x1="0" y1="0" x2="74" y2="-42" stroke="#333" stroke-width="0.5"/>
      <line x1="0" y1="0" x2="74" y2="42" stroke="#333" stroke-width="0.5"/>
      <line x1="0" y1="0" x2="0" y2="85" stroke="#333" stroke-width="0.5"/>
      <line x1="0" y1="0" x2="-74" y2="42" stroke="#333" stroke-width="0.5"/>
      <line x1="0" y1="0" x2="-74" y2="-42" stroke="#333" stroke-width="0.5"/>
      
      <!-- Skill Polygon -->
      <polygon points="0,-72 62,-28 55,36 0,48 -42,28 -55,-32" 
               fill="url(#core-radarFill)" stroke="#00f3ff" stroke-width="2" class="anim-radar"/>
      
      <!-- Data points -->
      <circle cx="0" cy="-72" r="4" fill="#00f3ff" class="anim-pulse"/>
      <circle cx="62" cy="-28" r="4" fill="#00f3ff" class="anim-pulse"/>
      <circle cx="55" cy="36" r="4" fill="#00f3ff" class="anim-pulse"/>
      <circle cx="0" cy="48" r="4" fill="#00f3ff" class="anim-pulse"/>
      <circle cx="-42" cy="28" r="4" fill="#00f3ff" class="anim-pulse"/>
      <circle cx="-55" cy="-32" r="4" fill="#00f3ff" class="anim-pulse"/>
      
      <!-- Labels -->
      <text x="0" y="-95" text-anchor="middle" class="f-data c-white">FRONTEND</text>
      <text x="85" y="-35" class="f-data c-white">BACKEND</text>
      <text x="85" y="50" class="f-data c-white">DEVOPS</text>
      <text x="0" y="100" text-anchor="middle" class="f-data c-white">MOBILE</text>
      <text x="-80" y="50" class="f-data c-white">SECURITY</text>
      <text x="-80" y="-35" class="f-data c-white">AI/ML</text>
    </g>
  </g>
  
  <!-- === DATA_BLOCKS MODULE === -->
  <g transform="translate(310, 320)" class="boot-4">
    <rect width="280" height="115" fill="#0a0a0d" stroke="#bf00ff" stroke-width="1"/>
    <text x="15" y="18" class="f-title c-purple" font-size="11">&gt;&gt; DATA_BLOCKS</text>
    
    <g transform="translate(20, 35)">
      <rect width="240" height="40" fill="#0a0a1a" stroke="#333"/>
      <text x="10" y="15" class="f-data c-dim">EURODOLLAR BALANCE</text>
      <text x="10" y="32" class="f-mono c-purple anim-flux" font-size="20">E$ 847,291.50</text>
      <text x="180" y="32" class="f-data c-green">+2.4%</text>
    </g>
    
    <g transform="translate(20, 85)">
      <rect width="75" height="22" fill="#111" stroke="#333"/>
      <text x="37" y="15" text-anchor="middle" class="f-data c-cyan">TX: 1,247</text>
      
      <rect x="82" width="75" height="22" fill="#111" stroke="#333"/>
      <text x="120" y="15" text-anchor="middle" class="f-data c-green">IN: +892</text>
      
      <rect x="164" width="76" height="22" fill="#111" stroke="#333"/>
      <text x="202" y="15" text-anchor="middle" class="f-data c-red">OUT: -355</text>
    </g>
  </g>
  
  <!-- === GEO LOCATION === -->
  <g transform="translate(310, 448)" class="boot-5">
    <rect width="280" height="117" fill="#0a0a0d" stroke="#ff003c" stroke-width="0.5"/>
    <text x="15" y="18" class="f-title c-red" font-size="11">&gt;&gt; GEO_TRACKING</text>
    
    <g transform="translate(15, 30)">
      <path d="M 10 30 Q 50 20 90 35 Q 130 25 170 30 Q 210 35 250 25" stroke="#333" fill="none"/>
      <path d="M 20 50 Q 60 45 100 55 Q 140 50 180 55 Q 220 45 250 50" stroke="#333" fill="none"/>
      
      <!-- Location ping -->
      <circle cx="80" cy="40" r="3" fill="#ff003c"/>
      <circle cx="80" cy="40" r="8" fill="none" stroke="#ff003c" class="anim-pulse"/>
      <circle cx="80" cy="40" r="15" fill="none" stroke="#ff003c" opacity="0.3" class="anim-pulse"/>
      
      <text x="95" y="35" class="f-data c-red">MEXICO</text>
      <text x="95" y="48" class="f-data c-dim">LAT: 28.6 N</text>
      <text x="95" y="60" class="f-data c-dim">LON: 106.1 W</text>
    </g>
    
    <text x="15" y="108" class="f-data c-dim">IP: [ENCRYPTED] | VPN: ACTIVE</text>
  </g>
  
  <!-- === LANGUAGES PIE === -->
  <g transform="translate(605, 320)" class="boot-4">
    <rect width="280" height="115" fill="#0a0a0d" stroke="#333" stroke-width="0.5"/>
    <text x="15" y="18" class="f-title" fill="#fff" font-size="11">&gt;&gt; LANG_DISTRIBUTION</text>
    
    <g transform="translate(60, 65)">
      <circle cx="0" cy="0" r="35" fill="none" stroke="#00f3ff" stroke-width="12" stroke-dasharray="80 140"/>
      <circle cx="0" cy="0" r="35" fill="none" stroke="#0aff0a" stroke-width="12" stroke-dasharray="50 170" stroke-dashoffset="-80"/>
      <circle cx="0" cy="0" r="35" fill="none" stroke="#ff9500" stroke-width="12" stroke-dasharray="40 180" stroke-dashoffset="-130"/>
      <circle cx="0" cy="0" r="35" fill="none" stroke="#ff003c" stroke-width="12" stroke-dasharray="30 190" stroke-dashoffset="-170"/>
      <circle cx="0" cy="0" r="35" fill="none" stroke="#bf00ff" stroke-width="12" stroke-dasharray="20 200" stroke-dashoffset="-200"/>
      <circle cx="0" cy="0" r="20" fill="#0a0a0d"/>
    </g>
    
    <g transform="translate(130, 35)">
      <rect x="0" y="0" width="10" height="10" fill="#00f3ff"/>
      <text x="15" y="9" class="f-data c-white">TypeScript 36%</text>
      
      <rect x="0" y="16" width="10" height="10" fill="#0aff0a"/>
      <text x="15" y="25" class="f-data c-white">JavaScript 15%</text>
      
      <rect x="0" y="32" width="10" height="10" fill="#ff9500"/>
      <text x="15" y="41" class="f-data c-white">Python 19%</text>
      
      <rect x="0" y="48" width="10" height="10" fill="#ff003c"/>
      <text x="15" y="57" class="f-data c-white">Java 14%</text>
      
      <rect x="0" y="64" width="10" height="10" fill="#bf00ff"/>
      <text x="15" y="73" class="f-data c-white">C++ 9%</text>
    </g>
  </g>
  
  <!-- === COMMIT HEATMAP === -->
  <g transform="translate(605, 448)" class="boot-5">
    <rect width="280" height="117" fill="#0a0a0d" stroke="#333" stroke-width="0.5"/>
    <text x="15" y="18" class="f-title c-cyan" font-size="11">&gt;&gt; COMMIT_HISTORY</text>
    
    <g transform="translate(8, 30)">
      <text x="0" y="8" class="f-data c-dim">L</text>
      <text x="0" y="20" class="f-data c-dim">M</text>
      <text x="0" y="32" class="f-data c-dim">X</text>
      <text x="0" y="44" class="f-data c-dim">J</text>
      <text x="0" y="56" class="f-data c-dim">V</text>
      <text x="0" y="68" class="f-data c-dim">S</text>
    </g>
    
    <g transform="translate(20, 25)">
      <!-- Simplified heatmap rows -->
      <rect x="0" y="0" width="8" height="8" fill="#0e4429" rx="1"/>
      <rect x="10" y="0" width="8" height="8" fill="#006d32" rx="1"/>
      <rect x="20" y="0" width="8" height="8" fill="#26a641" rx="1"/>
      <rect x="30" y="0" width="8" height="8" fill="#0e4429" rx="1"/>
      <rect x="40" y="0" width="8" height="8" fill="#39d353" rx="1"/>
      <rect x="50" y="0" width="8" height="8" fill="#006d32" rx="1"/>
      <rect x="60" y="0" width="8" height="8" fill="#0e4429" rx="1"/>
      <rect x="70" y="0" width="8" height="8" fill="#26a641" rx="1"/>
      <rect x="80" y="0" width="8" height="8" fill="#39d353" rx="1"/>
      <rect x="90" y="0" width="8" height="8" fill="#0e4429" rx="1"/>
      <rect x="100" y="0" width="8" height="8" fill="#006d32" rx="1"/>
      <rect x="110" y="0" width="8" height="8" fill="#39d353" rx="1"/>
      <rect x="120" y="0" width="8" height="8" fill="#26a641" rx="1"/>
      <rect x="130" y="0" width="8" height="8" fill="#0e4429" rx="1"/>
      <rect x="140" y="0" width="8" height="8" fill="#006d32" rx="1"/>
      <rect x="150" y="0" width="8" height="8" fill="#26a641" rx="1"/>
      <rect x="160" y="0" width="8" height="8" fill="#0e4429" rx="1"/>
      <rect x="170" y="0" width="8" height="8" fill="#39d353" rx="1"/>
      <rect x="180" y="0" width="8" height="8" fill="#006d32" rx="1"/>
      <rect x="190" y="0" width="8" height="8" fill="#0e4429" rx="1"/>
      <rect x="200" y="0" width="8" height="8" fill="#26a641" rx="1"/>
      <rect x="210" y="0" width="8" height="8" fill="#39d353" rx="1"/>
      <rect x="220" y="0" width="8" height="8" fill="#0e4429" rx="1"/>
      <rect x="230" y="0" width="8" height="8" fill="#006d32" rx="1"/>
      <rect x="240" y="0" width="8" height="8" fill="#26a641" rx="1"/>
      
      <!-- More rows -->
      <rect x="0" y="10" width="248" height="8" fill="#0e4429" rx="1" opacity="0.5"/>
      <rect x="20" y="10" width="28" height="8" fill="#26a641" rx="1"/>
      <rect x="80" y="10" width="38" height="8" fill="#39d353" rx="1"/>
      <rect x="160" y="10" width="28" height="8" fill="#006d32" rx="1"/>
      
      <rect x="0" y="20" width="248" height="8" fill="#0e4429" rx="1" opacity="0.5"/>
      <rect x="40" y="20" width="38" height="8" fill="#006d32" rx="1"/>
      <rect x="100" y="20" width="48" height="8" fill="#26a641" rx="1"/>
      <rect x="200" y="20" width="28" height="8" fill="#39d353" rx="1"/>
      
      <rect x="0" y="30" width="248" height="8" fill="#0e4429" rx="1" opacity="0.5"/>
      <rect x="10" y="30" width="28" height="8" fill="#39d353" rx="1"/>
      <rect x="60" y="30" width="48" height="8" fill="#006d32" rx="1"/>
      <rect x="140" y="30" width="38" height="8" fill="#26a641" rx="1"/>
      
      <rect x="0" y="40" width="248" height="8" fill="#0e4429" rx="1" opacity="0.4"/>
      <rect x="30" y="40" width="38" height="8" fill="#26a641" rx="1"/>
      <rect x="120" y="40" width="28" height="8" fill="#39d353" rx="1"/>
      <rect x="180" y="40" width="48" height="8" fill="#006d32" rx="1"/>
      
      <rect x="0" y="50" width="248" height="8" fill="#0e4429" rx="1" opacity="0.3"/>
      <rect x="50" y="50" width="28" height="8" fill="#006d32" rx="1"/>
      <rect x="90" y="50" width="38" height="8" fill="#26a641" rx="1"/>
      <rect x="160" y="50" width="48" height="8" fill="#39d353" rx="1"/>
    </g>
    
    <g transform="translate(100, 98)">
      <text x="0" y="0" class="f-data c-dim">Less</text>
      <rect x="25" y="-8" width="10" height="10" fill="#0e4429" rx="1"/>
      <rect x="38" y="-8" width="10" height="10" fill="#006d32" rx="1"/>
      <rect x="51" y="-8" width="10" height="10" fill="#26a641" rx="1"/>
      <rect x="64" y="-8" width="10" height="10" fill="#39d353" rx="1"/>
      <text x="80" y="0" class="f-data c-dim">More</text>
    </g>
  </g>
  
  <!-- Version Tag -->
  <text x="885" y="570" text-anchor="end" class="f-data c-dim">HALUZ_CORE_v3.1</text>
</svg>
