<svg width="850" height="700" viewBox="0 0 850 700" xmlns="http://www.w3.org/2000/svg">
  <defs>
    <style>
      @import url('https://fonts.googleapis.com/css2?family=Orbitron:wght@500;900&amp;family=Share+Tech+Mono&amp;display=swap');
      
      :root {
        --bg-deep: #020204;
        --bg-panel: #08080c;
        --neon-c: #00f3ff;
        --neon-p: #bc13fe;
        --neon-r: #ff003c;
        --neon-g: #0aff0a;
        --glass: rgba(0, 243, 255, 0.05);
      }

      /* FUENTES */
      .f-header { font-family: 'Orbitron', sans-serif; font-weight: 900; letter-spacing: 3px; }
      .f-mono { font-family: 'Share Tech Mono', monospace; }
      
      /* CLASES DE TEXTO */
      .txt-dim { fill: #445; font-size: 10px; }
      .txt-val { fill: #fff; font-size: 12px; font-weight: bold; }
      .txt-lbl { fill: var(--neon-c); font-size: 11px; letter-spacing: 1px; }

      /* EFECTOS */
      .glow-blue { filter: drop-shadow(0 0 4px var(--neon-c)); }
      .glow-pink { filter: drop-shadow(0 0 4px var(--neon-p)); }
      .holo-blur { filter: url(#holo-glow); opacity: 0.8; }

      /* ANIMACIONES */
      @keyframes spin { 0% { transform: rotate(0deg); } 100% { transform: rotate(360deg); } }
      @keyframes spin-rev { 0% { transform: rotate(360deg); } 100% { transform: rotate(0deg); } }
      @keyframes float { 0%, 100% { transform: translateY(0); } 50% { transform: translateY(-10px); } }
      @keyframes pulse { 0%, 100% { opacity: 0.8; } 50% { opacity: 0.4; } }
      @keyframes matrix { 0% { transform: translateY(-100%); opacity: 0; } 50% { opacity: 1; } 100% { transform: translateY(100%); opacity: 0; } }
      @keyframes scan { 0% { transform: translateY(-100%); } 100% { transform: translateY(100%); } }
      @keyframes glitch-x { 0% { transform: translate(0); } 20% { transform: translate(-3px, 1px); } 40% { transform: translate(3px, -1px); } 100% { transform: translate(0); } }
      @keyframes load-w { from { width: 0; } }
      
      .rotate { transform-origin: center; animation: spin 20s linear infinite; }
      .rotate-fast { transform-origin: center; animation: spin-rev 10s linear infinite; }
      .levitate { animation: float 6s ease-in-out infinite; }
      .blinking { animation: pulse 2s infinite; }
      .matrix-rain { animation: matrix 4s linear infinite; }
      .scanline { fill: url(#scan-g); animation: scan 8s linear infinite; pointer-events: none; opacity: 0.15; }
      .glitch-anim { animation: glitch-x 3s infinite alternate-reverse; }
      .load-bar { animation: load-w 2s ease-out forwards; }
    </style>

    <filter id="holo-glow">
      <feGaussianBlur stdDeviation="2" result="coloredBlur"/>
      <feMerge><feMergeNode in="coloredBlur"/><feMergeNode in="SourceGraphic"/></feMerge>
    </filter>
    
    <linearGradient id="bg-grad" x1="0" y1="0" x2="0" y2="1">
      <stop offset="0%" stop-color="#050508"/>
      <stop offset="100%" stop-color="#000"/>
    </linearGradient>
    
    <linearGradient id="bar-g" x1="0" y1="0" x2="1">
      <stop offset="0%" stop-color="#bc13fe"/>
      <stop offset="100%" stop-color="#00f3ff"/>
    </linearGradient>

    <linearGradient id="scan-g" x1="0" y1="0" x2="0" y2="1">
      <stop offset="0%" stop-color="transparent"/>
      <stop offset="50%" stop-color="#00f3ff"/>
      <stop offset="100%" stop-color="transparent"/>
    </linearGradient>
    
    <pattern id="hex" width="40" height="40" patternUnits="userSpaceOnUse">
      <path d="M20 0 L40 10 L40 30 L20 40 L0 30 L0 10 Z" fill="none" stroke="#1a1a2e" stroke-width="1" transform="scale(0.5) translate(20,20)"/>
    </pattern>
  </defs>

  <rect width="100%" height="100%" fill="url(#bg-grad)" />
  <rect width="100%" height="100%" fill="url(#hex)" opacity="0.3" />
  
  <g font-family="monospace" font-size="10" fill="#0aff0a" opacity="0.15">
    <text x="50" y="0" class="matrix-rain" style="animation-delay: 0s">1 0 1 0 0 1</text>
    <text x="150" y="0" class="matrix-rain" style="animation-delay: 1.2s">0 1 1 0 1 0</text>
    <text x="250" y="0" class="matrix-rain" style="animation-delay: 0.5s">1 1 0 0 1 1</text>
    <text x="600" y="0" class="matrix-rain" style="animation-delay: 2s">0 0 1 1 0 1</text>
    <text x="750" y="0" class="matrix-rain" style="animation-delay: 1.5s">1 0 1 1 1 0</text>
  </g>

  <path d="M 30 30 L 250 30 L 280 60 L 820 60 L 820 150 L 800 170 L 800 600 L 770 630 L 500 630 L 480 670 L 30 670 L 30 600 L 10 580 L 10 150 L 30 130 Z" 
        fill="#08080c" stroke="#333" stroke-width="2" fill-opacity="0.9" />
  
  <path d="M 30 30 L 30 200" stroke="#00f3ff" stroke-width="4" class="glow-blue" fill="none"/>
  <path d="M 820 60 L 820 150" stroke="#bc13fe" stroke-width="4" class="glow-pink" fill="none"/>
  <path d="M 480 670 L 30 670" stroke="#ff003c" stroke-width="3" fill="none"/>

  <g transform="translate(60, 90)">
    <text x="0" y="0" fill="#fff" font-size="46" class="f-header glitch-anim">AARON<tspan fill="#bc13fe">ESTRADA</tspan></text>
    
    <g transform="translate(0, 30)">
      <rect x="0" y="0" width="100" height="20" fill="#ff003c" opacity="0.2"/>
      <rect x="0" y="0" width="100" height="20" stroke="#ff003c" fill="none"/>
      <text x="50" y="14" text-anchor="middle" fill="#ff003c" font-size="11" class="f-mono font-bold">NETRUNNER</text>
    </g>
    
    <g transform="translate(110, 30)">
      <rect x="0" y="0" width="120" height="20" fill="#00f3ff" opacity="0.1"/>
      <rect x="0" y="0" width="120" height="20" stroke="#00f3ff" fill="none"/>
      <text x="60" y="14" text-anchor="middle" fill="#00f3ff" font-size="11" class="f-mono font-bold">FULL STACK</text>
    </g>
  </g>

  <g transform="translate(600, 250)">
    <circle cx="0" cy="0" r="90" stroke="#1a1a2e" stroke-width="1" fill="none" />
    <circle cx="0" cy="0" r="80" stroke="#00f3ff" stroke-width="2" stroke-dasharray="10 30" fill="none" class="rotate glow-blue"/>
    <circle cx="0" cy="0" r="60" stroke="#bc13fe" stroke-width="1" stroke-dasharray="5 10" fill="none" class="rotate-fast" opacity="0.7"/>
    
    <g class="levitate holo-blur" transform="scale(0.8)">
       <path d="M0,0 C-40,-50 -40,-50 -30,-80 C-30,-80 -10,-80 0,-70 C10,-80 30,-80 30,-80 C40,-50 40,-50 0,0" fill="none" stroke="#fff" stroke-width="2" opacity="0.5" />
       <path d="M-45,0 A45,45 0 1,0 45,0 A45,45 0 1,0 -45,0" fill="none" stroke="#00f3ff" stroke-width="2" />
       <path d="M-20,20 Q0,40 20,20" stroke="#00f3ff" fill="none" stroke-width="2"/> <circle cx="-15" cy="0" r="5" fill="#fff" class="blinking" />
       <circle cx="15" cy="0" r="5" fill="#fff" class="blinking" style="animation-delay: 0.2s" />
       
       <path d="M -40 60 L 0 0 L 40 60" fill="url(#scan-g)" opacity="0.3" />
    </g>
    
    <text x="0" y="110" text-anchor="middle" class="f-mono txt-val glow-blue">GITHUB_NEURAL_LINK</text>
    <text x="0" y="125" text-anchor="middle" class="f-mono txt-dim">STATUS: CONNECTED</text>
  </g>

  <g transform="translate(60, 220)">
    <text x="0" y="-10" class="f-header" fill="#fff" font-size="14">>> ARSENAL</text>
    
    <g transform="translate(0, 20)">
      <text x="0" y="10" class="f-mono txt-dim">JAVASCRIPT</text>
      <rect x="100" y="0" width="250" height="12" fill="#111" rx="2"/>
      <rect x="100" y="0" width="225" height="12" fill="url(#bar-g)" rx="2" class="load-bar"/>
      <text x="360" y="10" class="f-mono txt-val">90%</text>
    </g>

    <g transform="translate(0, 50)">
      <text x="0" y="10" class="f-mono txt-dim">REACT / NATIVE</text>
      <rect x="100" y="0" width="250" height="12" fill="#111" rx="2"/>
      <rect x="100" y="0" width="200" height="12" fill="url(#bar-g)" rx="2" class="load-bar" style="animation-delay: 0.2s"/>
      <text x="360" y="10" class="f-mono txt-val">80%</text>
    </g>

    <g transform="translate(0, 80)">
      <text x="0" y="10" class="f-mono txt-dim">NODE.JS</text>
      <rect x="100" y="0" width="250" height="12" fill="#111" rx="2"/>
      <rect x="100" y="0" width="180" height="12" fill="url(#bar-g)" rx="2" class="load-bar" style="animation-delay: 0.4s"/>
      <text x="360" y="10" class="f-mono txt-val">75%</text>
    </g>

    <g transform="translate(0, 110)">
      <text x="0" y="10" class="f-mono txt-dim">LINUX / BASH</text>
      <rect x="100" y="0" width="250" height="12" fill="#111" rx="2"/>
      <rect x="100" y="0" width="245" height="12" fill="url(#bar-g)" rx="2" class="load-bar" style="animation-delay: 0.6s"/>
      <text x="360" y="10" class="f-mono txt-val">98%</text>
    </g>
  </g>

  <g transform="translate(60, 400)">
    <text x="0" y="0" class="f-header" fill="#0aff0a" font-size="14">>> ACTIVITY_HEATMAP</text>
    <rect x="0" y="15" width="400" height="100" fill="#050508" stroke="#333"/>
    
    <g transform="translate(10, 25)">
      <rect x="0" y="0" width="10" height="10" fill="#111" rx="2"/> <rect x="15" y="0" width="10" height="10" fill="#0aff0a" opacity="0.8" rx="2"/>
      <rect x="30" y="0" width="10" height="10" fill="#0aff0a" opacity="0.2" rx="2"/> <rect x="45" y="0" width="10" height="10" fill="#0aff0a" opacity="1" rx="2"/>
      <rect x="0" y="15" width="10" height="10" fill="#0aff0a" opacity="0.4" rx="2"/> <rect x="15" y="15" width="10" height="10" fill="#111" rx="2"/>
      <rect x="30" y="15" width="10" height="10" fill="#0aff0a" opacity="0.9" rx="2"/> <rect x="45" y="15" width="10" height="10" fill="#0aff0a" opacity="0.5" rx="2"/>
      
      <text x="100" y="40" class="f-mono txt-dim" font-size="10">Analyzing 4,302 Commits...</text>
      <text x="100" y="55" class="f-mono txt-dim" font-size="10">Target: Open Source</text>
    </g>
  </g>

  <g transform="translate(500, 400)">
    <text x="0" y="0" class="f-header" fill="#ff003c" font-size="14">>> NET_TOPOLOGY</text>
    <rect x="0" y="15" width="280" height="100" fill="#050508" stroke="#333"/>
    
    <g transform="translate(140, 65)">
      <circle r="30" stroke="#333" fill="none"/>
      <line x1="-30" y1="0" x2="30" y2="0" stroke="#222"/>
      <line x1="0" y1="-30" x2="0" y2="30" stroke="#222"/>
      <path d="M 0 0 L 30 -10 A 30 30 0 0 0 30 10 Z" fill="#ff003c" opacity="0.4" class="rotate"/>
      <circle cx="15" cy="-10" r="3" fill="#ff003c" class="blinking glow-pink"/>
      <text x="25" y="-10" class="f-mono txt-val" font-size="9">MX_SERVER</text>
    </g>
  </g>

  <g transform="translate(480, 540)">
    <path d="M 0 0 L 300 0 L 320 20 L 320 100 L 20 100 L 0 80 Z" fill="#08080c" stroke="#333" stroke-width="1"/>
    <text x="15" y="20" class="f-mono txt-lbl">> /var/log/syslog</text>
    
    <g transform="translate(15, 40)" class="f-mono" font-size="10">
       <text x="0" y="0" fill="#666">> Initializing protocol v9.0...</text>
       <text x="0" y="12" fill="#0aff0a">> [OK] React Framework Loaded.</text>
       <text x="0" y="24" fill="#0aff0a">> [OK] Database Encrypted.</text>
       <text x="0" y="36" fill="#ff003c">> ALERT: Bambu Lab P1S [OFFLINE].</text>
       <text x="0" y="48" fill="#fff">> Waiting for user input... <tspan class="blinking">_</tspan></text>
    </g>
  </g>

  <g transform="translate(30, 600)">
    <text x="0" y="0" class="f-mono txt-dim">© 2026 NIGHT CITY NETWORKS // AARON ESTRADA</text>
    <text x="0" y="15" class="f-mono txt-dim">ID: 777-AE-MX // SECURE CONNECTION</text>
  </g>

  <rect width="100%" height="100%" class="scanline" />

</svg>
