<svg width="900" height="800" viewBox="0 0 900 800" xmlns="http://www.w3.org/2000/svg">
  <defs>
    <style>
      @import url('https://fonts.googleapis.com/css2?family=Orbitron:wght@500;900&amp;family=Share+Tech+Mono&amp;family=Rajdhani:wght@500;700&amp;display=swap');
      
      :root {
        --bg: #050505;
        --panel: #0a0a0d;
        --cyan: #00f3ff;
        --red: #ff003c;
        --yellow: #fcee0a;
        --dim: #3a3a45;
        --glass: rgba(255, 255, 255, 0.03);
      }

      /* TYPOGRAPHY */
      .f-title { font-family: 'Orbitron', sans-serif; font-weight: 900; letter-spacing: 2px; }
      .f-hud { font-family: 'Rajdhani', sans-serif; font-weight: 700; text-transform: uppercase; }
      .f-mono { font-family: 'Share Tech Mono', monospace; }
      
      /* COLORS & GLOWS */
      .c-cyan { fill: var(--cyan); }
      .c-red { fill: var(--red); }
      .c-dim { fill: var(--dim); }
      .c-white { fill: #fff; }
      
      .glow-text { text-shadow: 0 0 5px var(--cyan); }
      .glow-alert { text-shadow: 0 0 5px var(--red); }
      .glow-box { filter: drop-shadow(0 0 2px var(--cyan)); }
      
      /* ANIMATIONS */
      @keyframes blink { 0%, 100% { opacity: 1; } 50% { opacity: 0.3; } }
      @keyframes scan-v { 0% { transform: translateY(-100%); opacity: 0; } 50% { opacity: 0.5; } 100% { transform: translateY(100%); opacity: 0; } }
      @keyframes spin { from { transform: rotate(0deg); } to { transform: rotate(360deg); } }
      @keyframes pulse-map { 0% { r: 2; opacity: 1; } 100% { r: 20; opacity: 0; } }
      @keyframes glitch-t { 0% { transform: translate(0); } 20% { transform: translate(-2px, 1px); } 40% { transform: translate(2px, -1px); } 100% { transform: translate(0); } }
      @keyframes load-h { from { width: 0; } }
      @keyframes matrix-fall { 0% { transform: translateY(-100%); } 100% { transform: translateY(100%); } }

      .anim-blink { animation: blink 2s infinite; }
      .anim-spin { transform-origin: center; animation: spin 10s linear infinite; }
      .anim-pulse { animation: pulse-map 2s infinite; fill: none; stroke: var(--red); }
      .anim-glitch { animation: glitch-t 3s infinite alternate-reverse; }
      .anim-load { animation: load-h 1.5s ease-out forwards; }
      .scanline { fill: url(#grad-scan); animation: scan-v 4s linear infinite; pointer-events: none; }
      
      /* UI ELEMENTS */
      .panel-bg { fill: var(--panel); stroke: #222; stroke-width: 1; }
      .border-cyan { fill: none; stroke: var(--cyan); stroke-width: 1; }
      .border-red { fill: none; stroke: var(--red); stroke-width: 1; }
      .grid-line { stroke: #1a1a20; stroke-width: 1; }

    </style>

    <linearGradient id="grad-scan" x1="0" y1="0" x2="0" y2="1">
      <stop offset="0%" stop-color="transparent"/>
      <stop offset="50%" stop-color="#00f3ff" stop-opacity="0.1"/>
      <stop offset="100%" stop-color="transparent"/>
    </linearGradient>
    
    <linearGradient id="grad-bar" x1="0" y1="0" x2="1" y2="0">
      <stop offset="0%" stop-color="#00f3ff" stop-opacity="0.2"/>
      <stop offset="100%" stop-color="#00f3ff"/>
    </linearGradient>
    
    <pattern id="micro-grid" width="20" height="20" patternUnits="userSpaceOnUse">
      <path d="M 20 0 L 0 0 0 20" fill="none" stroke="#111" stroke-width="1"/>
    </pattern>
  </defs>

  <rect width="100%" height="100%" fill="#020202" />
  <rect width="100%" height="100%" fill="url(#micro-grid)" />
  
  <path d="M 0 100 L 900 100 M 0 700 L 900 700 M 300 0 L 300 800 M 600 0 L 600 800" stroke="#111" stroke-width="2"/>

  <g transform="translate(30, 40)">
    <path d="M 0 0 L 250 0 L 270 20 L 270 100 L 20 100 L 0 80 Z" class="panel-bg border-cyan" />
    <text x="20" y="35" class="f-title c-cyan anim-glitch" font-size="32">HALUZ</text>
    <text x="20" y="55" class="f-mono c-white" font-size="12">ID: aaronestradabonilla777</text>
    <text x="20" y="75" class="f-hud c-red" font-size="10">CLASS: NETRUNNER // LVL.50</text>
    
    <rect x="200" y="10" width="50" height="4" fill="#00f3ff" class="anim-blink"/>
    <rect x="250" y="25" width="4" height="40" fill="#00f3ff"/>
  </g>

  <g transform="translate(320, 40)">
    <path d="M 0 20 L 20 0 L 380 0 L 400 20 L 400 80 L 380 100 L 20 100 L 0 80 Z" class="panel-bg" stroke="#333"/>
    
    <g transform="translate(30, 30)">
      <text x="0" y="0" class="f-hud c-dim" font-size="10">TOTAL_COMMITS</text>
      <text x="0" y="20" class="f-mono c-white" font-size="24">4,444</text>
      <rect x="0" y="30" width="80" height="2" fill="#333"/><rect x="0" y="30" width="60" height="2" fill="#00f3ff"/>
    </g>
    <g transform="translate(150, 30)">
      <text x="0" y="0" class="f-hud c-dim" font-size="10">REPOSITORIES</text>
      <text x="0" y="20" class="f-mono c-white" font-size="24">127</text>
      <rect x="0" y="30" width="80" height="2" fill="#333"/><rect x="0" y="30" width="70" height="2" fill="#fcee0a"/>
    </g>
    <g transform="translate(270, 30)">
      <text x="0" y="0" class="f-hud c-dim" font-size="10">CONTRIB_STREAK</text>
      <text x="0" y="20" class="f-mono c-white" font-size="24">MAX</text>
      <rect x="0" y="30" width="80" height="2" fill="#333"/><rect x="0" y="30" width="80" height="2" fill="#ff003c"/>
    </g>
  </g>

  <g transform="translate(740, 40)">
    <rect x="0" y="0" width="130" height="100" class="panel-bg border-red"/>
    <text x="65" y="25" text-anchor="middle" class="f-hud c-red anim-blink">SYSTEM ALERT</text>
    <text x="65" y="50" text-anchor="middle" class="f-mono c-white" font-size="10">INTRUSION DETECTED</text>
    <text x="65" y="65" text-anchor="middle" class="f-mono c-dim" font-size="9">SECTOR 7</text>
    <line x1="10" y1="80" x2="120" y2="80" stroke="#ff003c" stroke-dasharray="5 5"/>
  </g>

  <g transform="translate(30, 160)">
    <text x="0" y="-10" class="f-hud c-cyan">> NEURAL_STACK_MODULES</text>
    <path d="M 0 0 L 250 0 L 250 350 L 0 350 Z" class="panel-bg" opacity="0.8"/>
    
    <g transform="translate(20, 40)">
      <text x="0" y="0" class="f-mono c-white" font-size="11">JAVASCRIPT_CORE</text>
      <rect x="0" y="10" width="210" height="6" fill="#111"/>
      <rect x="0" y="10" width="190" height="6" fill="url(#grad-bar)" class="anim-load"/>
      <text x="180" y="25" class="f-mono c-cyan" font-size="9" text-anchor="end">98%</text>

      <g transform="translate(0, 45)">
        <text x="0" y="0" class="f-mono c-white" font-size="11">REACT / VITE</text>
        <rect x="0" y="10" width="210" height="6" fill="#111"/>
        <rect x="0" y="10" width="175" height="6" fill="url(#grad-bar)" class="anim-load" style="animation-delay: 0.2s"/>
        <text x="180" y="25" class="f-mono c-cyan" font-size="9" text-anchor="end">85%</text>
      </g>

      <g transform="translate(0, 90)">
        <text x="0" y="0" class="f-mono c-white" font-size="11">NODE.JS / API</text>
        <rect x="0" y="10" width="210" height="6" fill="#111"/>
        <rect x="0" y="10" width="160" height="6" fill="url(#grad-bar)" class="anim-load" style="animation-delay: 0.4s"/>
        <text x="180" y="25" class="f-mono c-cyan" font-size="9" text-anchor="end">80%</text>
      </g>
      
      <g transform="translate(0, 135)">
        <text x="0" y="0" class="f-mono c-white" font-size="11">LINUX_KERNEL</text>
        <rect x="0" y="10" width="210" height="6" fill="#111"/>
        <rect x="0" y="10" width="200" height="6" fill="url(#grad-bar)" class="anim-load" style="animation-delay: 0.6s"/>
        <text x="180" y="25" class="f-mono c-cyan" font-size="9" text-anchor="end">99%</text>
      </g>
    </g>

    <g transform="translate(125, 270)">
        <circle r="40" stroke="#222" fill="none" stroke-width="4"/>
        <path d="M 0 -40 A 40 40 0 0 1 35 20" stroke="#ff003c" fill="none" stroke-width="4"/>
        <path d="M 35 20 A 40 40 0 0 1 -30 25" stroke="#00f3ff" fill="none" stroke-width="4"/>
        <text x="0" y="5" text-anchor="middle" class="f-mono c-white" font-size="10">LANG_DIST</text>
    </g>
  </g>

  <g transform="translate(300, 160)">
    
    <g>
      <text x="0" y="-10" class="f-hud c-red">> GEO_TRACKING</text>
      <rect x="0" y="0" width="570" height="200" class="panel-bg border-red"/>
      
      <g transform="translate(285, 100) scale(1.5)" opacity="0.5">
         <path d="M -80 -20 L -60 -30 L -40 -10 L -20 -20 L 0 0 L 20 -10 L 40 10 L 60 0" fill="none" stroke="#555" stroke-width="1"/>
         <path d="M -70 10 L -50 20 L -30 30 L 10 20 L 50 30" fill="none" stroke="#555" stroke-width="1"/>
         
         <circle cx="-50" cy="5" r="3" fill="#ff003c"/>
         <circle cx="-50" cy="5" r="10" class="anim-pulse"/>
         <line x1="-50" y1="5" x2="-20" y2="-20" stroke="#ff003c" stroke-width="0.5"/>
         <rect x="-20" y="-30" width="40" height="15" fill="#111" stroke="#ff003c" stroke-width="0.5"/>
         <text x="0" y="-22" text-anchor="middle" fill="#fff" font-size="6" class="f-mono">MEXICO</text>
      </g>
      
      <text x="10" y="20" class="f-mono c-red" font-size="9">LAT: 25.5687 N</text>
      <text x="10" y="32" class="f-mono c-red" font-size="9">LON: 103.4981 W</text>
      <text x="10" y="44" class="f-mono c-dim" font-size="9">VPN: ENCRYPTED</text>
    </g>

    <g transform="translate(0, 220)">
      <text x="0" y="-10" class="f-hud c-cyan">> COMMIT_HISTORY_LOG</text>
      <path d="M 0 0 L 570 0 L 570 130 L 0 130 Z" class="panel-bg" stroke="#333"/>
      
      <g transform="translate(15, 15)">
        <defs>
          <g id="w-col">
            <rect y="0" width="10" height="10" rx="2" fill="#161b22"/>
            <rect y="13" width="10" height="10" rx="2" fill="#0e4429"/>
            <rect y="26" width="10" height="10" rx="2" fill="#006d32"/>
            <rect y="39" width="10" height="10" rx="2" fill="#161b22"/>
            <rect y="52" width="10" height="10" rx="2" fill="#26a641"/>
            <rect y="65" width="10" height="10" rx="2" fill="#39d353"/>
            <rect y="78" width="10" height="10" rx="2" fill="#161b22"/>
          </g>
        </defs>
        
        <use href="#w-col" x="0"/>   <use href="#w-col" x="13"/>  <use href="#w-col" x="26"/>
        <use href="#w-col" x="39"/>  <use href="#w-col" x="52"/>  <use href="#w-col" x="65"/>
        <use href="#w-col" x="78"/>  <use href="#w-col" x="91"/>  <use href="#w-col" x="104"/>
        <use href="#w-col" x="117"/> <use href="#w-col" x="130"/> <use href="#w-col" x="143"/>
        <use href="#w-col" x="156"/> <use href="#w-col" x="169"/> <use href="#w-col" x="182"/>
        <use href="#w-col" x="195"/> <use href="#w-col" x="208"/> <use href="#w-col" x="221"/>
        <use href="#w-col" x="234"/> <use href="#w-col" x="247"/> <use href="#w-col" x="260"/>
        <use href="#w-col" x="273"/> <use href="#w-col" x="286"/> <use href="#w-col" x="299"/>
        <use href="#w-col" x="312"/> <use href="#w-col" x="325"/> <use href="#w-col" x="338"/>
        <use href="#w-col" x="351"/> <use href="#w-col" x="364"/> <use href="#w-col" x="377"/>
        <use href="#w-col" x="390"/> <use href="#w-col" x="403"/> <use href="#w-col" x="416"/>
        <use href="#w-col" x="429"/> <use href="#w-col" x="442"/> <use href="#w-col" x="455"/>
        <use href="#w-col" x="468"/> <use href="#w-col" x="481"/> <use href="#w-col" x="494"/>
        <use href="#w-col" x="507"/> <use href="#w-col" x="520"/> <use href="#w-col" x="533"/>
      </g>
      
      <text x="555" y="115" text-anchor="end" class="f-mono c-white" font-size="10">4,444 LINES_PROCESSED</text>
    </g>
  </g>

  <g transform="translate(30, 540)">
    <path d="M 0 0 L 500 0 L 520 20 L 520 120 L 0 120 Z" class="panel-bg" stroke="#333"/>
    <text x="10" y="20" class="f-mono c-dim">> /root/system_logs</text>
    
    <g transform="translate(15, 45)" class="f-mono" font-size="11">
      <text x="0" y="0" class="c-white">> Initializing Neural Interface v4.0...</text>
      <text x="0" y="15" class="c-cyan">> [OK] Connection to GitHub API established.</text>
      <text x="0" y="30" class="c-cyan">> [OK] Repository metadata synced.</text>
      <text x="0" y="45" class="c-red">> WARNING: Bambu Lab P1S device offline.</text>
      <text x="0" y="60" class="c-white">> Awaiting user input... <tspan class="anim-blink">_</tspan></text>
    </g>

    <g transform="translate(540, 0)">
       <rect x="0" y="0" width="140" height="55" class="panel-bg border-cyan"/>
       <text x="10" y="20" class="f-hud c-cyan" font-size="10">CURRENT_TASK</text>
       <text x="10" y="35" class="f-mono c-white" font-size="11">FULL_STACK_DEV</text>
       
       <rect x="150" y="0" width="150" height="55" class="panel-bg border-cyan"/>
       <text x="160" y="20" class="f-hud c-cyan" font-size="10">ENVIRONMENT</text>
       <text x="160" y="35" class="f-mono c-white" font-size="11">PROD // DEPLOY</text>
       
       <rect x="0" y="65" width="300" height="55" fill="#111" stroke="#333"/>
       <text x="150" y="95" text-anchor="middle" class="f-title c-red anim-blink" letter-spacing="4px">EXECUTE</text>
    </g>
  </g>

  <g transform="translate(30, 750)">
    <text x="0" y="0" class="f-mono c-dim" font-size="10">© 2026 NIGHT CITY NETWORKS // AARON ESTRADA</text>
    <rect x="800" y="-10" width="40" height="20" fill="#00f3ff"/>
    <text x="820" y="4" text-anchor="middle" class="f-hud" fill="#000" font-size="10">ON</text>
  </g>

  <rect width="100%" height="100%" class="scanline" />
  
  <path d="M 10 10 L 100 10 M 800 10 L 890 10 M 10 790 L 100 790 M 800 790 L 890 790" stroke="#fff" stroke-width="2"/>
  <path d="M 10 10 L 10 100 M 890 10 L 890 100 M 10 700 L 10 790 M 890 700 L 890 790" stroke="#fff" stroke-width="2"/>

</svg>
